# xmcd CD database file
#
# Track frame offsets:
#	150
#	2775
#	21525
#	25126
#	32185
#	48823
#	61450
#	62888
#	79690
#	90348
#	96420
#	110195
#
# Disc length: 1516 seconds
#
# Revision: 4
# Processed by: cddbd v1.5.2PL0 Copyright (c) Steve Scherf et al.
# Submitted via: CDex 1.51
#
DISCID=9b05ea0c
DTITLE=鳥肌実 - 鳥肌黙示録
DYEAR=2002
DGENRE=パンク
TTITLE0=ア、カペラ
TTITLE1=廃人演説
TTITLE2=貧乏不遇欲情空腹
TTITLE3=動物の唄
TTITLE4=ガイセン活動
TTITLE5=僕の夢
TTITLE6=レイプ数え唄
TTITLE7=欲情のかませ犬
TTITLE8=スピーチ
TTITLE9=教練
TTITLE10=ビフテキ
TTITLE11=ア、カペラ
EXTD=YEAR: 2002
EXTT0=
EXTT1=
EXTT2=
EXTT3=
EXTT4=
EXTT5=
EXTT6=
EXTT7=
EXTT8=
EXTT9=
EXTT10=
EXTT11=
PLAYORDER=
